<svg xmlns="http://www.w3.org/2000/svg" xmlns:xlink="http://www.w3.org/1999/xlink" version="1.1" baseProfile="tiny" x="0px" y="0px" width="418.29px" height="76.08px" viewBox="0 0 418.29 76.08" overflow="inherit" xml:space="preserve"><g><path fill-rule="evenodd" fill="#5E001D" d="M113.82 0c0.32 0 0.6 0 1 0c2.235 0.3 4.1 1.2 6 2.1 c1.864 0.8 3.7 1.7 5.5 2.55c3.688 1.7 7.3 3.4 11 5.1c2.741 1.3 5.5 2.7 8.6 3.6 c0.603 0.2 1.1 0.3 1.7 0.12c0.514-0.118 1.036-0.251 1.59-0.42c3.069-0.935 6.17-1.905 9.24-2.88 c1.019-0.323 2.131-0.703 3.39-0.63c1.086 0.1 2.1 0.5 3.1 0.93c2.891 1.1 5.8 2.5 8.4 3.7 c1.867 0.8 3.7 1.7 5.5 2.55c7.334 3.5 14.4 7 20.9 11.34c1.216 0.8 2.4 1.6 3.6 2.5 c0.351 0.3 0.9 0.5 0.9 1.02c-0.195 0.203-0.561-0.075-0.75-0.18c-3.419-1.9-6.991-3.81-10.71-5.49 c-3.944-1.782-7.942-3.601-12.03-5.25c-5.184-2.091-10.179-4.179-15.93-5.67c-1.103-0.286-2.547-0.694-3.72-0.48 c-1.163 0.212-2.277 0.599-3.36 0.96c-2.085 0.697-4.36 1.455-6.39 2.25c-1.04 0.407-2.067 0.843-3.15 1.2 c-2.678 0.809-4.727-0.648-6.57-1.53c-7.659-3.663-15.54-7.662-23.28-11.28c-0.98-0.458-1.916-1.043-3.24-1.08 c-1.397-0.039-2.334 0.421-3.45 0.87c-4.102 1.649-8.132 3.366-11.97 5.31c-5.746 2.911-11.28 5.958-16.41 9.5 c-3.392 2.348-6.635 4.89-9.72 7.56c-3.081 2.666-6.117 5.393-9 8.28c-8.583 8.595-16.488 18.072-23.58 28.3 c-2.025 2.909-4.09 5.957-6.06 9.06c-0.246 0.388-0.651 1.219-0.87 1.29c-0.393 0.128-1.657 0-2.16 0 c-10.632 0.001-21.518 0-32.07 0C0 75 0 75 0 75c7.591-8.128 15.905-15.567 24.51-22.681 c6.448-5.33 13.291-10.368 20.04-15.36c2.276-1.683 4.578-3.306 6.93-4.89c7.053-4.749 14.463-9.118 21.78-13.59 c7.343-4.488 15.108-8.539 23.28-12.15c2.717-1.201 5.448-2.418 8.31-3.48C107.731 1.8 110.7 0.6 113.8 0z"/><path fill-rule="evenodd" fill="#5E001D" d="M319.8 14.16c-0.48 0.42-1.014 0.786-1.5 1.2c-0.553-0.752-1.317-1.395-2.34-1.59 c-2.225-0.424-4.62 0.631-4.62 3c0 2.5 2.8 3 4.8 3.72c1.522 0.5 3 1.3 3.6 2.7 c0.365 0.8 0.4 1.8 0.3 2.64c-0.14 0.891-0.526 1.545-0.96 2.1c-0.843 1.079-2.274 1.968-3.989 2.1 c-2.901 0.224-4.67-0.905-5.971-2.49c0.472-0.419 1.021-0.76 1.53-1.14c0.902 1.3 2.2 2.2 4.3 2 c1.678-0.12 3.245-1.256 3.271-3.03c0.036-2.597-2.436-3.067-4.591-3.78c-2.272-0.752-4.332-1.817-4.14-5.01 c0.09-1.481 0.739-2.503 1.59-3.21c0.873-0.725 2.087-1.208 3.63-1.29C317.143 12 318.7 12.9 319.8 14.16z"/><path fill-rule="evenodd" fill="#5E001D" d="M382.38 12.12c2.766-0.164 5.1 1 6.6 2.34c1.421 1.4 2.7 3.5 2.7 6.2 c0.045 2.95-0.848 5.016-2.31 6.6c-1.357 1.471-3.504 2.702-6.15 2.73c-2.908 0.03-4.959-0.86-6.57-2.34 c-1.527-1.404-2.612-3.398-2.729-6.18c-0.122-2.892 0.971-5.121 2.31-6.6c1-1.104 2.412-2.039 4.17-2.49 C381.002 12.2 381.7 12.2 382.4 12.12z M377.73 15.81c-1.091 1.168-1.939 2.892-1.95 5 c-0.012 2.3 0.7 3.9 1.7 5.22c1.016 1.2 2.6 2.2 4.7 2.34c2.315 0.2 4.217-0.66 5.46-1.89 c1.231-1.219 2.105-2.939 2.13-5.22c0.025-2.444-0.78-4.29-1.891-5.46c-1.17-1.234-2.905-2.167-5.22-2.13 C380.39 13.7 378.8 14.6 377.7 15.81z"/><path fill-rule="evenodd" fill="#5E001D" d="M212.16 12.54c0.57 0 1.1 0 1.7 0c0.001 3.2 0 6.7 0 9.9 c0.001 1.6 0.2 3.1 0.8 4.11c0.623 1 1.7 1.7 3.1 1.83c3.53 0.3 5.04-2.175 5.04-5.43c0-3.434 0-7.027 0-10.44 c0.58 0 1.2 0 1.7 0c0 2 0 4 0 5.94c0 2 0.2 4.017-0.06 5.85c-0.425 3.435-2.247 5.67-6.15 5.7 c-3.835 0-5.821-2.135-6.21-5.61c-0.206-1.842-0.06-3.861-0.06-5.85c-0.001-1.967 0-3.948 0-5.91 C212.127 12.6 212.1 12.5 212.2 12.54z"/><path fill-rule="evenodd" fill="#5E001D" d="M231.12 12.54c0.7 0 1.4 0 2.1 0c3.471 4.7 6.8 9.7 10.2 14.4 c0.07-4.75 0.011-9.63 0.03-14.43c0.57 0 1.1 0 1.7 0c0 5.7 0 11.4 0 17.04c-0.532-0.139-1.534 0.181-2.1 0 c-0.158-0.05-0.519-0.626-0.69-0.87c-3.177-4.525-6.382-9.322-9.57-13.71c0 4.9 0 9.7 0 14.58c-0.579 0-1.159 0-1.739 0 c0-5.65 0-11.3 0-16.95C231.087 12.6 231.1 12.5 231.1 12.54z"/><path fill-rule="evenodd" fill="#5E001D" d="M251.97 12.54c0.58 0 1.2 0 1.7 0c0 5.7 0 11.4 0 17.04c-0.591 0-1.181 0-1.771 0 c0-5.65 0-11.3 0-16.95C251.937 12.6 251.9 12.5 252 12.54z"/><path fill-rule="evenodd" fill="#5E001D" d="M260.04 12.54c1.797 4.8 3.6 9.7 5.4 14.4 c1.879-4.792 3.739-9.601 5.58-14.43c0.63 0 1.3 0 1.9 0c-2.199 5.691-4.427 11.353-6.63 17.04c-0.58 0-1.16 0-1.74 0 c-2.152-5.647-4.286-11.314-6.45-16.95c-0.002-0.042-0.005-0.085 0.03-0.09C258.78 12.5 259.4 12.5 260 12.54z"/><path fill-rule="evenodd" fill="#5E001D" d="M277.38 12.54c3.51 0 7 0 10.5 0c0 0.5 0 1.1 0 1.59c-2.939 0-5.88 0-8.819 0 c0 1.9 0 3.9 0 5.79c2.75 0 5.5 0 8.2 0c0 0.5 0 1.1 0 1.59c-2.74 0-5.48 0-8.221 0c-0.069 2.1-0.01 4.33-0.029 6.5 c3.04 0 6.1 0 9.1 0c0 0.5 0 1.1 0 1.59c-3.62 0-7.24 0-10.86 0c0-5.65 0-11.3 0-16.95 C277.347 12.6 277.3 12.5 277.4 12.54z"/><path fill-rule="evenodd" fill="#5E001D" d="M293.82 12.54c2.46 0.1 5.044-0.22 7 0.15c1.976 0.4 3.4 1.5 3.7 3.5 c0.506 3.177-1.47 5.039-4.261 5.31c1.485 2.7 3.3 5.4 4.8 8.1c-0.68 0-1.359 0-2.04 0c-1.646-2.574-3.121-5.319-4.739-7.92 c-0.94 0-1.88 0-2.82 0c-0.07 2.58-0.01 5.29-0.03 7.92c-0.58 0-1.16 0-1.74 0c0-5.65 0-11.3 0-16.95 C293.788 12.6 293.8 12.5 293.8 12.54z M295.53 14.22c0 1.9 0 3.9 0 5.85c2.772 0 5.7 0.3 6.78-1.35 c0.308-0.452 0.506-1.243 0.45-1.92c-0.246-2.958-3.899-2.737-7.2-2.67C295.525 14.1 295.5 14.2 295.5 14.22z"/><path fill-rule="evenodd" fill="#5E001D" d="M325.77 12.54c0.57 0 1.1 0 1.7 0c0 5.7 0 11.4 0 17.04c-0.58 0-1.16 0-1.74 0 c0-5.65 0-11.3 0-16.95C325.738 12.6 325.7 12.5 325.8 12.54z"/><path fill-rule="evenodd" fill="#5E001D" d="M332.31 12.54c4.37 0 8.7 0 13.1 0c0 0.5 0 1.1 0 1.59c-1.9 0-3.801 0-5.7 0 c0 5.2 0 10.3 0 15.45c-0.58 0-1.16 0-1.74 0c0-5.15 0-10.3 0-15.45c-1.9 0-3.8 0-5.7 0c0-0.5 0-1 0-1.5 C332.278 12.6 332.3 12.5 332.3 12.54z"/><path fill-rule="evenodd" fill="#5E001D" d="M347.61 12.54c0.397 0.1 1.646-0.156 2.1 0c0.217 0.1 0.5 0.7 0.7 1 c1.475 2.3 3.1 4.8 4.4 7.02c1.766-2.614 3.378-5.382 5.13-8.01c0.69 0 1.4 0 2.1 0c0.078 0.113-0.072 0.195-0.12 0.3 c-1.886 2.938-3.798 5.892-5.79 8.85c-0.146 0.217-0.354 0.437-0.39 0.6c-0.115 0.511-0.001 1.3 0 1.8 c0 1.817-0.001 3.7 0 5.49c-0.58 0-1.16 0-1.74 0c0-1.824 0-3.629 0-5.49c0-0.578 0.107-1.28 0-1.8 c-0.067-0.322-0.539-0.864-0.78-1.23C351.336 18.2 349.4 15.3 347.6 12.54z"/><path fill-rule="evenodd" fill="#5E001D" d="M397.32 12.54c3.42 0 6.8 0 10.3 0c0 0.5 0 1.1 0 1.59c-2.85 0-5.699 0-8.55 0 c0 1.9 0 3.8 0 5.76c2.58 0.1 5.3 0 7.9 0.03c0 0.5 0 1.1 0 1.59c-2.64 0-5.279 0-7.92 0c0 2.7 0 5.4 0 8.1 c-0.58 0-1.16 0-1.74 0c0-5.65 0-11.3 0-16.95C397.288 12.6 397.3 12.5 397.3 12.54z"/><path fill-rule="evenodd" fill="#5E001D" d="M181.86 76.08c-0.57 0-1.14 0-1.71 0c-0.006-0.023-0.025-0.034-0.06-0.029 c-6.668-0.267-11.506-2.263-15.15-5.58c-3.634-3.31-5.97-7.943-5.97-14.76c0-3.259 0.821-6.104 1.95-8.4 c2.281-4.642 6.126-7.767 11.19-9.54c2.568-0.899 5.602-1.476 8.94-1.44c6.717 0.1 11.8 2 15.5 5.2 c3.751 3.2 6.2 7.6 6.5 14.25c0.077 1.634-0.128 3.289-0.42 4.74c-0.861 4.278-2.936 7.583-5.61 10 c-3.694 3.283-8.421 5.365-15.15 5.58C181.872 76.1 181.9 76.1 181.9 76.08z M175.29 45.1 c-1.457 0.622-2.721 1.486-3.69 2.521c-2.059 2.195-3.315 4.874-3.27 9.149c0.02 1.9 0.5 3.6 1.2 5 c0.672 1.4 1.6 2.6 2.7 3.511c2.295 1.9 5.2 3.1 9.4 3.029c3.879-0.04 6.827-1.637 8.79-3.6 c2.023-2.023 3.466-5.154 3.27-9.09c-0.196-3.932-1.641-6.649-3.84-8.58c-2.113-1.855-5.339-3.223-9.39-3.03 C178.454 44.2 176.8 44.5 175.3 45.15z"/><path fill-rule="evenodd" fill="#5E001D" d="M105.54 37.29c4.53 0 9.1 0 13.6 0c3.158 8.2 6.2 16.5 9.4 24.7 c0.301-0.459 0.465-0.991 0.66-1.5c2.945-7.696 5.917-15.508 8.91-23.19c4.51 0 9 0 13.5 0c0 12.6 0 25.2 0 37.8 c-3 0-6 0-9 0c-0.02-9.66 0.04-19.399-0.03-29.01c-0.188 0.059-0.158 0.282-0.21 0.42c-3.524 9.446-7.09 19.103-10.62 28.6 c-2.29 0-4.58 0-6.87 0c-2.618-7.247-5.101-14.554-7.74-21.81c-0.658-1.809-1.308-3.616-1.95-5.43 c-0.21-0.596-0.395-1.209-0.69-1.771c-0.14 9.546-0.02 19.349-0.06 29.01c-3 0-6 0-9 0c0-12.579 0-25.16 0-37.739 C105.507 37.3 105.5 37.3 105.5 37.29z"/><path fill-rule="evenodd" fill="#5E001D" d="M210.36 37.29c4.05 0 8.1 0 12.2 0c5.124 7.6 10.2 15.4 15.3 23 c0.63 1 1.2 1.9 1.9 2.91c0.081 0.1 0.2 0.3 0.3 0.33c0.07-8.699 0.01-17.53 0.03-26.28c3 0 6 0 9 0 c0 12.6 0 25.2 0 37.83c-3.93 0-7.86 0-11.79 0c-5.688-8.746-11.611-17.379-17.31-26.13c-0.175-0.268-0.316-0.603-0.601-0.779 c-0.07 8.909-0.01 17.949-0.03 26.909c-3 0-6 0-9 0c0-12.579 0-25.16 0-37.739C210.328 37.3 210.3 37.3 210.4 37.29z"/><path fill-rule="evenodd" fill="#5E001D" d="M254.79 37.29c10.771 0 21.5 0 32.3 0c0 2.5 0 4.9 0 7.38c-3.88 0-7.76 0-11.64 0 c-0.07 10.09-0.011 20.31-0.03 30.449c-3 0-6 0-9 0c0-10.149 0-20.3 0-30.449c-3.891 0-7.78 0-11.67 0c0-2.431 0-4.86 0-7.29 C254.757 37.3 254.8 37.3 254.8 37.29z"/><path fill-rule="evenodd" fill="#5E001D" d="M301.02 37.29c2.46 0 4.9 0 7.4 0c1.561 3.1 3 6.3 4.5 9.4 c4.42 9.4 8.9 18.9 13.4 28.38c-3.37 0-6.74 0-10.11 0c-1.238-2.611-2.377-5.322-3.54-8.01c-5.28 0-10.56 0-15.84 0 c-1.242 2.588-2.278 5.382-3.479 8.01c-3.301 0-6.601 0-9.9 0C289.224 62.5 295.1 49.9 301 37.29z M299.52 60.1 c3.32 0 6.6 0 10 0c-1.682-3.898-3.295-7.865-5.04-11.7C302.814 52.3 301.1 56.1 299.5 60.06z"/><path fill-rule="evenodd" fill="#5E001D" d="M331.44 37.29c4.07 0 8.1 0 12.2 0c5.596 8.5 11.3 17 16.9 25.5 c0.173 0.3 0.3 0.6 0.6 0.75c0.07-8.699 0.01-17.53 0.03-26.28c3.01 0 6 0 9 0c0 12.6 0 25.2 0 37.8 c-3.438 0-6.756 0-10.29 0c-0.455 0-1.104 0.106-1.44 0c-0.15-0.047-0.426-0.541-0.6-0.81c-1.268-1.957-2.622-4.017-3.9-5.91 c-4.179-6.188-8.196-12.34-12.33-18.54c-0.188-0.282-0.347-0.585-0.54-0.87c-0.179-0.264-0.338-0.579-0.6-0.779 c-0.07 8.909-0.01 17.949-0.03 26.909c-3.01 0-6.02 0-9.03 0c0-12.579 0-25.16 0-37.739 C331.408 37.3 331.4 37.3 331.4 37.29z"/><path fill-rule="evenodd" fill="#5E001D" d="M418.29 75.09c0 0 0 0 0 0.029c-2.902 0-5.889 0-8.789 0 c-0.426 0-0.973 0.087-1.261 0c-0.297-0.089-0.431-0.759-0.569-1.08c-1-2.313-2.104-4.663-3.061-6.93 c-5.29 0.021-10.66-0.04-15.899 0.03c-1.104 2.656-2.234 5.286-3.36 7.92c-0.104 0.11-0.369 0.06-0.54 0.1 c-3.053 0-6.266 0-9.36 0c-0.047-0.008-0.021-0.065 0-0.09c2.844-6.15 5.804-12.399 8.82-18.93c2.795-6.05 5.749-12.232 8.58-18.3 c0.141-0.301 0.144-0.496 0.36-0.51c2.337-0.158 5 0.1 7.3 0C406.44 49.9 412.3 62.5 418.3 75.09z M395.25 51.3 c-1.134 2.69-2.264 5.408-3.391 8.04c-0.109 0.256-0.256 0.492-0.24 0.69c3.301-0.021 6.7 0 9.931-0.03 c-1.707-3.873-3.322-7.838-5.04-11.7C396.116 49.3 395.7 50.3 395.2 51.33z"/></g></svg>